HIERARCHY
ROOT Hips
{
	OFFSET	0.00	0.00	0.00
	CHANNELS 6 Xposition Yposition Zposition Zrotation Xrotation Yrotation
	JOINT LeftUpLeg
	{
		OFFSET	 0.126116	-0.065224	 0.014019
		CHANNELS 3 Zrotation Xrotation Yrotation
		JOINT LeftLeg
		{
			OFFSET	 0.000000	 0.569914	 0.000000
			CHANNELS 3 Zrotation Xrotation Yrotation
			JOINT LeftFoot
			{
				OFFSET	 0.000000	 0.544423	 0.000000
				CHANNELS 3 Zrotation Xrotation Yrotation
				JOINT LeftToeBase
				{
					OFFSET	 0.000000	 0.207117	 0.000000
					CHANNELS 3 Zrotation Xrotation Yrotation
					End Site
					{
						OFFSET	 0.000000	 0.207117	 0.000000
					}
				}
			}
		}
	}
	JOINT RightUpLeg
	{
		OFFSET	-0.124023	-0.065224	 0.008373
		CHANNELS 3 Zrotation Xrotation Yrotation
		JOINT RightLeg
		{
			OFFSET	 0.000000	 0.570047	 0.000000
			CHANNELS 3 Zrotation Xrotation Yrotation
			JOINT RightFoot
			{
				OFFSET	 0.000000	 0.544354	 0.000000
				CHANNELS 3 Zrotation Xrotation Yrotation
				JOINT RightToeBase
				{
					OFFSET	 0.000000	 0.207540	 0.000000
					CHANNELS 3 Zrotation Xrotation Yrotation
					End Site
					{
						OFFSET	 0.000000	 0.207540	 0.000000
					}
				}
			}
		}
	}
	JOINT Spine
	{
		OFFSET	 0.000184	 0.117403	 0.007763
		CHANNELS 3 Zrotation Xrotation Yrotation
		JOINT Spine1
		{
			OFFSET	 0.000000	 0.137269	 0.000000
			CHANNELS 3 Zrotation Xrotation Yrotation
			JOINT Spine2
			{
				OFFSET	 0.000000	 0.156879	 0.000000
				CHANNELS 3 Zrotation Xrotation Yrotation
				JOINT LeftShoulder
				{
					OFFSET	 0.080501	 0.160143	 0.002496
					CHANNELS 3 Zrotation Xrotation Yrotation
					JOINT LeftArm
					{
						OFFSET	 0.000000	 0.164363	 0.000000
						CHANNELS 3 Zrotation Xrotation Yrotation
						JOINT LeftForeArm
						{
							OFFSET	 0.000000	 0.364576	 0.000000
							CHANNELS 3 Zrotation Xrotation Yrotation
							JOINT LeftHand
							{
								OFFSET	 0.000000	 0.360812	 0.000000
								CHANNELS 3 Zrotation Xrotation Yrotation
								JOINT LeftHandIndex1
								{
									OFFSET	 0.000000	 0.086006	 0.000000
									CHANNELS 3 Zrotation Xrotation Yrotation
									JOINT LeftHandIndex2
									{
										OFFSET	 0.000000	 0.047237	 0.000000
										CHANNELS 3 Zrotation Xrotation Yrotation
										JOINT LeftHandIndex3
										{
											OFFSET	-0.004284	 0.038165	 0.000551
											CHANNELS 3 Zrotation Xrotation Yrotation
											End Site
											{
												OFFSET	-0.004284	 0.038165	 0.000551
											}
										}
									}
								}
							}
						}
					}
				}
				JOINT Neck
				{
					OFFSET	 0.000000	 0.176489	 0.000000
					CHANNELS 3 Zrotation Xrotation Yrotation
					JOINT Head
					{
						OFFSET	 0.000000	 0.077941	 0.001747
						CHANNELS 3 Zrotation Xrotation Yrotation
						End Site
						{
							OFFSET	 0.000000	 0.077941	 0.001747
						}
					}
				}
				JOINT RightShoulder
				{
					OFFSET	-0.080363	 0.159706	-0.000306
					CHANNELS 3 Zrotation Xrotation Yrotation
					JOINT RightArm
					{
						OFFSET	 0.000000	 0.164196	 0.000000
						CHANNELS 3 Zrotation Xrotation Yrotation
						JOINT RightForeArm
						{
							OFFSET	 0.000000	 0.365611	 0.000000
							CHANNELS 3 Zrotation Xrotation Yrotation
							JOINT RightHand
							{
								OFFSET	 0.000000	 0.360648	 0.000000
								CHANNELS 3 Zrotation Xrotation Yrotation
								JOINT RightHandIndex1
								{
									OFFSET	 0.000000	 0.069977	 0.000000
									CHANNELS 3 Zrotation Xrotation Yrotation
									JOINT RightHandIndex2
									{
										OFFSET	 0.000000	 0.052305	 0.000000
										CHANNELS 3 Zrotation Xrotation Yrotation
										JOINT RightHandIndex3
										{
											OFFSET	 0.009002	 0.042196	 0.000782
											CHANNELS 3 Zrotation Xrotation Yrotation
											End Site
											{
												OFFSET	 0.009002	 0.042196	 0.000782
											}
										}
									}
								}
							}
						}
					}
				}
			}
		}
	}
}
MOTION
Frames:    6
Frame Time: 0.03333334
-0.045208	 1.234319	-1.246404	-3.491853	 1.349741	-174.105900	 174.732900	 8.102351	-15.842820	 4.344612	-29.749540	 6.087816	 7.485837	 80.632840	-0.039072	 1.512287	 31.240310	-2.811662	 167.531100	 27.384510	 20.089400	-5.821329	-53.448360	 6.288682	 4.170986	 70.082670	-3.376405	-1.668530	 33.137300	 2.886185	-1.452781	 8.539140	 0.176087	-1.026475	 3.732496	 0.770850	 1.225617	-4.133441	-5.294986	-121.358900	 7.423541	 94.035510	 11.195270	 41.340980	 1.584359	 23.773500	-1.195030	 0.167717	 11.007190	 0.955834	 11.631490	 4.624178	 18.856530	-1.654968	-5.863953	 21.470840	 2.373669	 5.331528	 4.340009	-0.169039	-0.168371	-5.009586	-0.144698	-2.097505	-2.066531	-4.268621	 118.423900	-0.013282	-90.826360	-0.686324	 49.040900	-4.821355	-5.000704	-0.196519	 0.049987	-5.478008	 7.473169	-1.509876	-2.438164	 25.992480	 1.336380	 15.855070	 44.981340	-11.843920	-8.529009	 23.990480	-1.227678
-0.045068	 1.234298	-1.245954	-3.410742	 1.042287	-174.112000	 174.801500	 8.512105	-15.852420	 4.364964	-29.864180	 6.098354	 7.323359	 80.653970	 0.132838	 1.512305	 31.240530	-2.811671	 167.558100	 27.741050	 20.137220	-5.821594	-53.449250	 6.288665	 4.075157	 70.046840	-3.282160	-1.668538	 33.137390	 2.886189	-1.392175	 8.313421	 0.129118	-1.057170	 3.359451	 0.746761	 1.253982	-3.704847	-5.234637	-121.358900	 7.423775	 94.035620	 16.092970	 41.328630	-1.636129	 16.197260	-0.826992	 0.033825	 14.590450	 0.603355	 11.704880	 4.624207	 18.856630	-1.654983	-5.863952	 21.470920	 2.373678	 5.331532	 4.340094	-0.169037	-0.168375	-5.009605	-0.144679	-2.094469	-2.018390	-4.252833	 118.423900	-0.013417	-90.826290	-0.853647	 49.195060	-4.691556	-4.941835	-0.194197	 0.050166	-5.148158	 7.440157	-1.726483	-2.438057	 25.991690	 1.336323	 15.854870	 44.980570	-11.843610	-8.529012	 23.989690	-1.227625
-0.044906	 1.234290	-1.245512	-3.307503	 0.660801	-174.121800	 174.887700	 9.009252	-15.863790	 4.389326	-29.995080	 6.115010	 7.167420	 80.678060	 0.297876	 1.512499	 31.242940	-2.811762	 167.594100	 28.156620	 20.202740	-5.822674	-53.450390	 6.289921	 4.016933	 70.070330	-3.211203	-1.668623	 33.138400	 2.886231	-1.321244	 8.038814	-0.004055	-1.086883	 2.813478	 0.679943	 1.264200	-3.122622	-5.040624	-121.358800	 7.426189	 94.036820	 23.182700	 40.907310	-6.298692	 5.087826	-0.262888	-0.072205	 19.849700	-0.023504	 11.615730	 4.624518	 18.857650	-1.655149	-5.863950	 21.471820	 2.373778	 5.331569	 4.340996	-0.169021	-0.168420	-5.009810	-0.144476	-2.090174	-1.956004	-4.202993	 118.423500	-0.014854	-90.825630	-1.020902	 49.414670	-4.560433	-4.868450	-0.191323	 0.050439	-4.720988	 7.402654	-2.283142	-2.436923	 25.983280	 1.335713	 15.852730	 44.972370	-11.840320	-8.529045	 23.981250	-1.227062
-0.044809	 1.234282	-1.245403	-3.237060	 0.408569	-174.128900	 174.945700	 9.325953	-15.870130	 4.406283	-30.076230	 6.133054	 7.123646	 80.697110	 0.344423	 1.512909	 31.248060	-2.811955	 167.619000	 28.390850	 20.256860	-5.826722	-53.461000	 6.291173	 4.073328	 70.203120	-3.231536	-1.668802	 33.140550	 2.886321	-1.276520	 7.859920	-0.143281	-1.106852	 2.336687	 0.612124	 1.255773	-2.679252	-4.830597	-121.358700	 7.431309	 94.039370	 22.982970	 41.104420	-6.166299	 5.035600	-0.260279	-0.072437	 19.670450	-0.382340	 11.363810	 4.625179	 18.859820	-1.655502	-5.863944	 21.473720	 2.373988	 5.331652	 4.342913	-0.168986	-0.168513	-5.010246	-0.144046	-2.086401	-1.914474	-4.149256	 118.422800	-0.017859	-90.824200	-1.055021	 49.583090	-4.527802	-4.819848	-0.189415	 0.050594	-4.411899	 7.381618	-2.860044	-2.434516	 25.965450	 1.334418	 15.848180	 44.954980	-11.833340	-8.529116	 23.963350	-1.225868
-0.044737	 1.234249	-1.245506	-3.187506	 0.226136	-174.129900	 174.986600	 9.546465	-15.873750	 4.420807	-30.137570	 6.153831	 7.124076	 80.718290	 0.344136	 1.513490	 31.255300	-2.812228	 167.634100	 28.520660	 20.307220	-5.834554	-53.485770	 6.291254	 4.203503	 70.421830	-3.304038	-1.669056	 33.143580	 2.886448	-1.247146	 7.734342	-0.276997	-1.129743	 1.875589	 0.547427	 1.244094	-2.300430	-4.629005	-121.358400	 7.438532	 94.042950	 22.747970	 41.281680	-6.004376	 4.997156	-0.258224	-0.072587	 19.557750	-0.725351	 11.104600	 4.626113	 18.862880	-1.656000	-5.863936	 21.476420	 2.374285	 5.331768	 4.345622	-0.168937	-0.168646	-5.010861	-0.143437	-2.082681	-1.884799	-4.097595	 118.421800	-0.022136	-90.822200	-1.004062	 49.725530	-4.557469	-4.783728	-0.188011	 0.050722	-4.157808	 7.369371	-3.413068	-2.431115	 25.940250	 1.332590	 15.841750	 44.930390	-11.823480	-8.529217	 23.938050	-1.224179
-0.044606	 1.234084	-1.246369	-3.107322	-0.074322	-174.117800	 175.054200	 9.880768	-15.875350	 4.454501	-30.255410	 6.217832	 7.260101	 80.784770	 0.199866	 1.515517	 31.280500	-2.813182	 167.654300	 28.577340	 20.430980	-5.866085	-53.590340	 6.288182	 4.787824	 71.250950	-3.672112	-1.669940	 33.154150	 2.886890	-1.203281	 7.539812	-0.585250	-1.204587	 0.671435	 0.401544	 1.216380	-1.453321	-4.165376	-121.357800	 7.463761	 94.055470	 22.008540	 41.717010	-5.472903	 4.930366	-0.254839	-0.072914	 19.476670	-1.549348	 10.491710	 4.629372	 18.873580	-1.657737	-5.863906	 21.485810	 2.375321	 5.332171	 4.355069	-0.168765	-0.169107	-5.013006	-0.141315	-2.072665	-1.837727	-3.978398	 118.418300	-0.037007	-90.815230	-0.628358	 50.029390	-4.811581	-4.717505	-0.185415	 0.050921	-3.615553	 7.358475	-4.708606	-2.419267	 25.852360	 1.326231	 15.819420	 44.844650	-11.789170	-8.529559	 23.849820	-1.218295
